<?xml version="1.0" encoding="utf-8"?>
<!-- Generator: Adobe Illustrator 22.0.1, SVG Export Plug-In . SVG Version: 6.00 Build 0)  -->
<svg version="1.1" id="_x33_0x120_x5F_72dpi_x5F_RGB"
	 xmlns="http://www.w3.org/2000/svg" xmlns:xlink="http://www.w3.org/1999/xlink" x="0px" y="0px" viewBox="0 0 120 30"
	 style="enable-background:new 0 0 120 30;" xml:space="preserve">
<g>
	<g>
		<path d="M69.2,20.5c0,1.6-1,2.5-2.5,2.5c-1.4,0-2-0.8-2-2.2v-5.7h-2.4V21c0,2.7,1.5,4.2,3.6,4.2c1.5,0,2.7-0.7,3.3-2l0,1.8h2.4
			v-9.8h-2.4V20.5z M52,15c-1.7,0-2.9,0.8-3.5,2l0.1-1.8h-2.4v14.8h2.4v-6.6c0.6,1.1,1.7,1.9,3.4,1.9c2.5,0,4.6-2.2,4.6-5.1
			C56.6,17.1,54.6,15,52,15z M51.4,23.1c-1.7,0-2.9-1.2-2.9-3.1c0-1.8,1.1-3,2.9-3c1.7,0,2.8,1.2,2.8,3
			C54.2,21.9,53.1,23.1,51.4,23.1z M116.5,15.2l-2.1,4.9c-0.3,0.7-0.5,2-0.5,2s-0.2-1.3-0.6-2l-2.1-4.9h-2.6l4,8.9l-2.5,5.8h2.4
			l6.4-14.8H116.5z M99.8,15c-1.7,0-2.9,0.8-3.5,2l0.1-1.8H94v14.8h2.4v-6.6c0.6,1.1,1.7,1.9,3.4,1.9c2.5,0,4.6-2.2,4.6-5.1
			C104.3,17.1,102.3,15,99.8,15z M99.1,23.1c-1.7,0-2.9-1.2-2.9-3.1c0-1.8,1.1-3,2.9-3c1.7,0,2.8,1.2,2.8,3
			C101.9,21.9,100.8,23.1,99.1,23.1z M83.6,15c-1.7,0-2.9,0.8-3.5,2l0.1-1.8h-2.4v14.8h2.4v-6.6c0.6,1.1,1.7,1.9,3.4,1.9
			c2.5,0,4.6-2.2,4.6-5.1C88.2,17.1,86.1,15,83.6,15z M83,23.1c-1.7,0-2.9-1.2-2.9-3.1c0-1.8,1.1-3,2.9-3c1.7,0,2.8,1.2,2.8,3
			C85.7,21.9,84.7,23.1,83,23.1z"/>
	</g>
	<g>
		<path d="M27.7,29.9l2.4-11.5h-4.7l-6.9,4.2l4.1,2.5c0.3,0.2,0.4,0.4,0.4,0.7c0,1.2,0,4,0,4H27.7z"/>
		<polygon points="27.1,4 25.2,0 21.9,5.7 20.2,8.5 20.8,9.5 25.6,17.2 30.4,17.2 31.3,13 35.7,10.7 36.3,6.2 27.1,4 		"/>
		<path d="M11.4,25.9c0-0.3,0.2-0.6,0.4-0.7l5-3.1c0,0,0,0,0,0l7.4-4.5l-5.2-8.4L0,11.2l3.4,2.8l3.3,15.9h4.7V25.9z"/>
	</g>
</g>
</svg>
